<svg xmlns="http://www.w3.org/2000/svg" viewBox="0 0 760 220" role="img" aria-labelledby="title">
  <title id="title">Digitable Chat</title>
  <rect width="760" height="220" rx="20" fill="#05080d"/>
  <g transform="translate(26 18) scale(.72)">
    <path d="M28 52h200M28 128h200M28 204h200M52 28v200M128 28v200M204 28v200" stroke="#15566a" stroke-width="3" opacity=".42"/>
    <path d="M57 66h142a17 17 0 0 1 17 17v79a17 17 0 0 1-17 17h-69l-39 31 8-31H57a17 17 0 0 1-17-17V83a17 17 0 0 1 17-17Z" fill="#071018" stroke="#00e5e5" stroke-width="7" stroke-linejoin="round"/>
    <circle cx="81" cy="108" r="9" fill="#ffc247"/>
    <circle cx="128" cy="108" r="9" fill="#00e5e5"/>
    <circle cx="175" cy="108" r="9" fill="#b65cff"/>
    <path d="M81 108h47m0 0h47" stroke="#f5f7fa" stroke-width="3" opacity=".55"/>
  </g>
  <text x="228" y="104" fill="#f5f7fa" font-family="Inter, Manrope, Arial, sans-serif" font-size="58" font-weight="800" letter-spacing="-2">DIGITABLE</text>
  <text x="230" y="157" fill="#00e5e5" font-family="JetBrains Mono, monospace" font-size="34" font-weight="600" letter-spacing="8">CHAT</text>
</svg>
